HIERARCHY
ROOT Hips
{
  OFFSET 2.26061 22.2878 23.7974
  CHANNELS 6 Xposition Yposition Zposition Zrotation Xrotation Yrotation
  JOINT LeftUpLeg
  {
    OFFSET 8.64259 1.95398 -2.38835
    CHANNELS 3 Zrotation Xrotation Yrotation
    JOINT LeftLeg
    {
      OFFSET 43.7702 0 0
      CHANNELS 3 Zrotation Xrotation Yrotation
      JOINT LeftFoot
      {
        OFFSET 40.6238 0 0
        CHANNELS 3 Zrotation Xrotation Yrotation
        JOINT LeftToeBase
        {
          OFFSET 12.7242 0 0
          CHANNELS 3 Zrotation Xrotation Yrotation
          End Site
          {
            OFFSET 0 0 0
          }
        }
      }
    }
  }
  JOINT RightUpLeg
  {
    OFFSET -8.2249 1.95398 -2.59336
    CHANNELS 3 Zrotation Xrotation Yrotation
    JOINT RightLeg
    {
      OFFSET 43.5653 0 0
      CHANNELS 3 Zrotation Xrotation Yrotation
      JOINT RightFoot
      {
        OFFSET 40.6238 0 0
        CHANNELS 3 Zrotation Xrotation Yrotation
        JOINT RightToeBase
        {
          OFFSET 12.7242 0 0
          CHANNELS 3 Zrotation Xrotation Yrotation
          End Site
          {
            OFFSET 0 0 0
          }
        }
      }
    }
  }
  JOINT Spine
  {
    OFFSET 0.165834 0.87714 6.61349
    CHANNELS 3 Zrotation Xrotation Yrotation
    JOINT Spine1
    {
      OFFSET 7.38963 1.71661e-005 0
      CHANNELS 3 Zrotation Xrotation Yrotation
      JOINT Spine2
      {
        OFFSET 11.9445 1.14441e-005 0
        CHANNELS 3 Zrotation Xrotation Yrotation
        JOINT Spine3
        {
          OFFSET 14.7254 4.19617e-005 0
          CHANNELS 3 Zrotation Xrotation Yrotation
          JOINT Spine4
          {
            OFFSET 10.9679 0 0
            CHANNELS 3 Zrotation Xrotation Yrotation
            JOINT RightShoulder
            {
              OFFSET 2.46616 -1.6653 3.69651
              CHANNELS 3 Zrotation Xrotation Yrotation
              JOINT RightArm
              {
                OFFSET 13.0012 0 0
                CHANNELS 3 Zrotation Xrotation Yrotation
                JOINT RightForeArm
                {
                  OFFSET 28.7848 1.52588e-005 0
                  CHANNELS 3 Zrotation Xrotation Yrotation
                  JOINT RightHand
                  {
                    OFFSET 26.5688 1.52588e-005 0
                    CHANNELS 3 Zrotation Xrotation Yrotation
                    End Site
                    {
                      OFFSET 0 0 0
                    }
                  }
                }
              }
            }
            JOINT LeftShoulder
            {
              OFFSET 2.38034 -1.29275 -3.7523
              CHANNELS 3 Zrotation Xrotation Yrotation
              JOINT LeftArm
              {
                OFFSET 16.3182 6.10351e-005 0
                CHANNELS 3 Zrotation Xrotation Yrotation
                JOINT LeftForeArm
                {
                  OFFSET 27.0901 0 0
                  CHANNELS 3 Zrotation Xrotation Yrotation
                  JOINT LeftHand
                  {
                    OFFSET 24.5451 1.52588e-005 0
                    CHANNELS 3 Zrotation Xrotation Yrotation
                    End Site
                    {
                      OFFSET 0 0 0
                    }
                  }
                }
              }
            }
            JOINT Neck
            {
              OFFSET 5.0226 -0.0266342 0
              CHANNELS 3 Zrotation Xrotation Yrotation
              JOINT Head
              {
                OFFSET 6.69363 2.86102e-005 0
                CHANNELS 3 Zrotation Xrotation Yrotation
                End Site
                {
                  OFFSET 0 0 0
                }
              }
            }
          }
        }
      }
    }
  }
}
MOTION
Frames:	10
Frame Time:	0.0416667
-55.663 97.4455 44.0592 -175.632 -88.5355 -175.658 -171.374 3.72006 91.419 -9.51558 6.9639 -0.37234 61.3712 1.37206 1.19537 28.9704 0.109625 0.410073 173.36 2.58172 89.6374 -10.6933 -4.5243 -1.92136 63.5242 -2.20993 -1.20128 29.1889 0.197318 -2.8116 0.129023 6.50388 -90.066 13.8547 0.223636 -0.162195 2.18371 0.216278 -0.171894 -20.3516 0.262053 -0.0874796 -0.338922 0.262043 -0.0874969 93.6085 -52.3813 -94.8852 16.7047 -24.0622 -1.37426 25.8695 -1.01798 -78.5202 -17.1977 0.443411 -8.81173 -102.82 -52.8312 61.0768 -17.3269 11.4646 7.42994 -20.7017 -10.116 -74.5864 10.8531 -0.492174 -7.83347 6.51672 0.950415 3.2841 -11.7947 0.463675 -1.21352 
-55.6713 97.4096 43.9949 -176.798 -88.4782 -176.722 -171.349 3.84576 91.5704 -9.71473 8.0258 -0.381968 61.5886 1.7701 2.36064 28.3302 -0.322413 -0.321948 173.44 2.51027 89.7539 -10.6592 -4.57231 -1.93764 63.6156 -2.2591 -1.23119 28.8795 0.196726 -3.02501 0.115889 6.50486 -90.0788 13.8655 0.191355 -0.183484 2.19451 0.183103 -0.191736 -20.3407 0.237653 -0.117491 -0.328069 0.237654 -0.117496 93.4812 -52.5987 -95.0422 16.7407 -23.6406 -1.62081 24.7348 -0.662011 -78.7076 -16.0442 0.359389 -8.21332 -102.936 -52.9122 60.9458 -17.2429 11.4876 7.66711 -20.2832 -9.82471 -75.0001 12.1979 -0.431072 -7.0336 4.79679 0.504198 4.79354 -9.45427 -0.12169 -2.55082 
-55.6368 97.423 43.9913 179.832 -88.5133 179.955 -171.398 4.11743 91.5615 -10.1087 8.42293 -0.348265 61.3209 1.49679 2.56281 28.9541 0.145674 -0.0885039 173.424 2.45244 89.7759 -10.4656 -4.47427 -1.89893 63.493 -2.23698 -1.22119 29.024 0.20648 -3.12105 0.119396 6.49496 -90.0768 13.8842 0.199237 -0.180646 2.21322 0.191103 -0.189248 -20.322 0.244318 -0.112411 -0.309366 0.244319 -0.112419 93.6037 -52.5423 -94.868 16.9538 -23.6495 -1.51837 24.7719 -0.45892 -79.0513 -15.9586 0.338866 -8.02829 -103.078 -52.812 60.7095 -17.289 11.3133 7.72064 -20.5269 -10.0001 -74.778 11.1807 -0.488344 -7.71326 4.87562 0.494171 3.60041 -9.35278 -0.0213156 -1.06959 
-55.6012 97.4327 44.0098 -177.456 -88.3754 -177.398 -171.397 3.8555 91.4971 -9.93475 8.27169 -0.353808 61.3469 1.51825 2.42199 28.6634 -0.1344 0.403228 173.333 2.38187 89.6607 -10.5992 -4.67332 -1.89982 63.5224 -2.24339 -1.223 29.0928 0.202705 -3.0329 0.135509 6.50826 -90.0743 13.8576 0.232458 -0.179843 2.18663 0.22432 -0.189912 -20.3487 0.275759 -0.101671 -0.336009 0.275756 -0.101674 93.6544 -52.5159 -94.7957 16.8609 -23.7298 -1.52913 25.2593 -0.650016 -78.8708 -16.5579 0.400299 -8.50534 -103.14 -52.8425 60.6358 -17.2652 11.4031 7.58658 -20.5969 -9.98357 -74.8177 11.723 -0.470098 -7.44095 5.12138 0.468536 3.78285 -9.55705 -0.0676294 -1.35118 
-55.6255 97.3896 44.0393 179.019 -88.673 179.104 -171.328 4.07033 91.5215 -9.87765 8.09944 -0.441631 61.9995 2.11369 2.3643 27.8427 -0.73963 -0.0270874 173.469 2.65614 89.7733 -10.6309 -4.38629 -1.94562 63.5762 -2.25101 -1.22698 29.1279 0.207763 -3.10181 0.123219 6.4708 -90.0765 13.9324 0.206966 -0.181126 2.2615 0.198788 -0.190063 -20.2737 0.251828 -0.110548 -0.2611 0.251825 -0.110557 93.6879 -52.6886 -94.7198 16.5382 -23.7789 -1.65559 25.407 -0.991158 -78.541 -16.9227 0.418768 -8.63454 -103.15 -52.7991 60.6037 -17.2893 11.4168 7.62788 -20.516 -9.96153 -74.8858 11.0311 -0.491102 -7.77802 4.99854 0.431275 3.85464 -9.48729 -0.113598 -1.31373 
-55.6148 97.3973 44.0747 176.891 -88.6181 176.931 -171.298 3.95266 91.5019 -9.75237 8.12584 -0.485439 61.7092 1.94485 2.44702 28.3466 -0.318246 -0.236872 173.35 2.63648 89.6801 -10.7326 -4.42672 -1.88501 63.7402 -2.29612 -1.25045 28.9404 0.193246 -2.93897 0.111946 6.47912 -90.0705 13.9158 0.187564 -0.16645 2.24484 0.180055 -0.174545 -20.2904 0.228921 -0.102377 -0.27773 0.228911 -0.102388 93.6953 -52.7622 -94.6963 16.565 -23.5875 -1.62459 24.6621 -1.33192 -78.5837 -16.6017 0.401963 -8.51953 -103.127 -52.8561 60.6585 -17.219 11.2379 7.47803 -20.5318 -9.92009 -74.838 11.4276 -0.551487 -8.17759 5.14746 0.487086 3.88243 -9.6104 -0.0665341 -1.32209 
-55.705 97.3839 44.1278 -166.487 -88.4882 -166.785 -171.346 3.45235 91.2678 -9.17428 7.66781 -0.553779 61.6065 1.98642 2.40341 28.2622 -0.408748 -0.0171953 173.392 2.86425 89.4598 -11.3185 -4.82594 -2.11437 63.9759 -2.32969 -1.26284 29.0682 0.198693 -2.97919 0.153526 6.4926 -90.0467 13.8889 0.281599 -0.131282 2.21794 0.275554 -0.14356 -20.3174 0.30803 -0.0405842 -0.3048 0.308032 -0.0405877 93.7121 -52.5006 -94.7117 16.7494 -23.3319 -1.63876 23.9953 -1.61586 -78.6122 -15.5748 0.351759 -8.18794 -103.236 -52.9752 60.5531 -17.1133 11.3192 7.38872 -21.2113 -10.0412 -75.1946 12.4083 -0.534424 -7.79797 4.98946 0.452288 4.31306 -9.30314 -0.149291 -1.70294 
-55.7084 97.3915 44.1939 -160.511 -88.575 -160.713 -171.329 3.58448 91.3411 -9.21949 7.83663 -0.545323 61.3539 1.79619 2.79711 28.7387 0.040368 -0.732179 173.45 2.89328 89.5835 -11.2183 -4.88291 -2.09763 63.881 -2.31336 -1.25445 28.9968 0.208079 -3.15481 0.166017 6.48126 -90.0506 13.9116 0.304463 -0.1422 2.24065 0.29792 -0.155467 -20.2948 0.333128 -0.0441119 -0.282131 0.33313 -0.0441182 93.7741 -52.3426 -94.6427 16.7936 -23.3171 -1.8603 23.7732 -1.84611 -78.6749 -16.5019 0.352115 -8.10373 -103.135 -52.8492 60.6444 -16.9115 11.7626 7.2063 -20.8954 -9.80931 -75.5226 12.0402 -0.533321 -7.87498 5.06333 0.459944 4.29005 -9.34749 -0.140027 -1.71376 
-55.5807 97.418 44.2662 -176.1 -88.4911 -176.063 -171.29 3.64845 91.4917 -9.73587 7.83366 -0.468315 62.0683 2.12346 2.04174 27.935 -0.727383 0.50979 173.362 2.38143 89.6412 -10.6982 -4.69775 -1.95168 63.7054 -2.29376 -1.25038 29.178 0.212184 -3.15561 0.142725 6.51346 -90.0832 13.8472 0.242447 -0.199034 2.17621 0.233461 -0.209518 -20.3591 0.291064 -0.116966 -0.346426 0.291059 -0.116971 93.8948 -52.1469 -94.4924 16.4865 -23.4519 -2.14904 23.6851 -1.65414 -78.9248 -17.2884 0.407538 -8.48642 -103.25 -52.9204 60.5133 -16.401 12.1118 6.87273 -20.481 -9.49876 -76.1201 12.0308 -0.515384 -7.7313 5.13559 0.570448 4.12136 -9.23399 -0.0162555 -1.52903 
-56.0985 97.3827 44.3519 -133.7 -89.2171 -134.691 -171.354 3.8211 90.8844 -8.36835 7.4867 -0.893295 60.9358 1.59035 2.11273 28.4388 -0.310048 0.373181 173.637 4.02008 89.3077 -11.9503 -4.68175 -2.48493 64.3628 -2.37993 -1.27689 29.0051 0.192093 -2.89544 0.17983 6.43534 -89.9588 14.0032 0.376585 0.0315629 2.33229 0.377608 0.0149541 -20.2033 0.349681 0.143277 -0.190633 0.34969 0.143286 93.9907 -51.6807 -94.419 16.4613 -23.3644 -2.67537 23.122 -2.44463 -80.314 -17.7167 0.352201 -8.01004 -102.895 -52.7382 60.9352 -15.4916 12.4265 6.46911 -21.3331 -8.98206 -78.4577 13.3305 -0.449911 -6.97281 5.42688 0.574618 4.08947 -9.33103 -0.0204931 -1.44629 
